# xmcd CD database file
#
# Track frame offsets:
#	150
#	11191
#	28026
#	42318
#	55444
#	73247
#	90724
#	110112
#	124151
#	139462
#	155615
#	171799
#	182057
#	197025
#	217024
#	233941
#	245982
#	260991
#
# Disc length: 3630 seconds
#
# Revision: 2
# Processed by: cddbd v1.5.2PL0 Copyright (c) Steve Scherf et al.
# Submitted via: CDex 1.70beta2
#
DISCID=270e2c12
DTITLE=JIMMY ROGERS - Chicago Blues Masters, Volume Two
DYEAR=1995
DGENRE=Blues
TTITLE0=Act Like You Love Me
TTITLE1=Broken Hearted Blues
TTITLE2=Information Please
TTITLE3=Bad Luck Blues
TTITLE4=Gold-Tailed Bird
TTITLE5=Lonesome Blues
TTITLE6=Brown-Skinned Woman
TTITLE7=That's All Right
TTITLE8=You're Sweet
TTITLE9=Sloppy Drunk
TTITLE10=Live At Ma Bee's
TTITLE11=House Rocker
TTITLE12=Pretty Baby
TTITLE13=You're The One
TTITLE14=Blues(Follow Me All Day Long)
TTITLE15=Slick Chick
TTITLE16=I Lost A  Good Woman
TTITLE17=Dorcie Belle
EXTD=YEAR: 1995
EXTT0=
EXTT1=
EXTT2=
EXTT3=
EXTT4=
EXTT5=
EXTT6=
EXTT7=
EXTT8=
EXTT9=
EXTT10=
EXTT11=
EXTT12=
EXTT13=
EXTT14=
EXTT15=
EXTT16=
EXTT17=
PLAYORDER=
